<?xml version="1.0" encoding="utf-8"?>
<!-- Generator: Adobe Illustrator 19.2.1, SVG Export Plug-In . SVG Version: 6.00 Build 0)  -->
<svg version="1.1" id="Layer_1" xmlns="http://www.w3.org/2000/svg" xmlns:xlink="http://www.w3.org/1999/xlink" x="0px" y="0px"
	 viewBox="0 0 18 18" style="enable-background:new 0 0 18 18;" xml:space="preserve">
<style type="text/css">
	.st0{fill:#007DB5;}
</style>
<g>
	<path class="st0" d="M11.8,16.5c0.6-0.7,1.1-1.6,1.4-2.6c0.6,0.2,1.1,0.4,1.5,0.7C13.9,15.4,12.9,16.1,11.8,16.5 M3.3,14.6
		c0.5-0.3,1-0.5,1.5-0.7c0.4,1,0.9,1.9,1.4,2.6C5.1,16.1,4.1,15.4,3.3,14.6 M6.2,1.5C5.7,2.2,5.2,3.1,4.8,4.1
		C4.3,3.9,3.8,3.7,3.3,3.4C4.1,2.6,5.1,1.9,6.2,1.5 M14.7,3.4c-0.5,0.3-1,0.5-1.5,0.7c-0.4-1-0.9-1.9-1.4-2.6
		C12.9,1.9,13.9,2.6,14.7,3.4 M14,8.5c0-1.2-0.2-2.4-0.5-3.5c0.7-0.2,1.3-0.5,1.9-0.9c0.9,1.2,1.5,2.7,1.6,4.3H14z M14,9.5h3
		c-0.1,1.6-0.7,3.1-1.6,4.3c-0.6-0.3-1.2-0.6-1.9-0.9C13.8,11.9,13.9,10.7,14,9.5 M9.5,12.3V9.5H13c0,1.1-0.2,2.2-0.5,3.2
		C11.6,12.4,10.6,12.3,9.5,12.3 M9.5,16.9v-3.7c0.9,0,1.9,0.2,2.7,0.4C11.6,15.4,10.6,16.6,9.5,16.9 M8.5,13.3v3.7
		c-1.1-0.3-2.1-1.5-2.7-3.3C6.6,13.4,7.6,13.3,8.5,13.3 M5,9.5h3.5v2.8c-1.1,0-2.1,0.2-3,0.4C5.2,11.7,5.1,10.6,5,9.5 M4,9.5
		c0,1.2,0.2,2.4,0.5,3.5c-0.7,0.2-1.3,0.5-1.9,0.9C1.7,12.6,1.1,11.1,1,9.5H4z M4,8.5H1c0.1-1.6,0.7-3.1,1.6-4.3
		C3.2,4.5,3.8,4.8,4.5,5C4.2,6.1,4.1,7.3,4,8.5 M8.5,5.7v2.8H5c0-1.1,0.2-2.2,0.5-3.2C6.4,5.6,7.4,5.7,8.5,5.7 M8.5,1.1v3.7
		c-0.9,0-1.9-0.2-2.7-0.4C6.4,2.6,7.4,1.4,8.5,1.1 M9.5,4.7V1.1c1.1,0.3,2.1,1.5,2.7,3.3C11.4,4.6,10.4,4.7,9.5,4.7 M9.5,5.7
		c1.1,0,2.1-0.2,3-0.4c0.3,1,0.4,2.1,0.5,3.2H9.5V5.7z M9,0C4,0,0,4,0,9s4,9,9,9s9-4,9-9S14,0,9,0"/>
</g>
</svg>
